<svg width="691" height="691" viewBox="0 0 691 691" fill="none" xmlns="http://www.w3.org/2000/svg">
<rect width="691" height="691" fill="#EDEDED"/>
<path d="M345.5 500.021C324.406 500.021 304.631 496.018 286.174 488.01C267.717 480.1 251.457 469.113 237.395 455.051C223.43 441.086 212.492 424.924 204.582 406.564C196.672 388.107 192.717 368.332 192.717 347.238C192.717 326.145 196.672 306.369 204.582 287.912C212.492 269.455 223.43 253.244 237.395 239.279C251.457 225.217 267.717 214.23 286.174 206.32C304.631 198.41 324.406 194.455 345.5 194.455C366.594 194.455 386.369 198.41 404.826 206.32C423.283 214.23 439.494 225.217 453.459 239.279C467.424 253.244 478.361 269.455 486.271 287.912C494.279 306.369 498.283 326.145 498.283 347.238C498.283 368.332 494.279 388.107 486.271 406.564C478.361 424.924 467.424 441.086 453.459 455.051C439.494 469.113 423.283 480.1 404.826 488.01C386.369 496.018 366.594 500.021 345.5 500.021ZM345.5 298.02C338.664 298.02 331.145 297.727 322.941 297.141C314.836 296.457 307.023 295.676 299.504 294.797C292.082 293.918 286.027 293.088 281.34 292.307C280.754 292.209 280.119 292.111 279.436 292.014C278.752 291.916 278.068 291.867 277.385 291.867C275.627 291.867 273.967 292.6 272.404 294.064C270.842 295.432 270.061 297.434 270.061 300.07C270.061 304.562 272.111 307.297 276.213 308.273C277.385 308.664 279.973 309.152 283.977 309.738C288.078 310.227 292.57 310.812 297.453 311.496C302.336 312.18 306.73 312.814 310.637 313.4C314.641 313.889 317.131 314.182 318.107 314.279C322.502 315.158 324.797 318.283 324.992 323.654C324.992 326.193 324.943 330.148 324.846 335.52C324.846 340.891 324.699 346.457 324.406 352.219C324.113 357.98 323.625 362.668 322.941 366.281C322.648 368.527 321.965 372.141 320.891 377.121C319.816 382.004 318.547 387.473 317.082 393.527C315.715 399.582 314.348 405.49 312.98 411.252C311.711 416.916 310.588 421.701 309.611 425.607C308.635 429.514 308.098 431.662 308 432.053C307.316 434.885 307.658 437.424 309.025 439.67C310.49 441.818 312.688 442.893 315.617 442.893C319.719 442.893 322.502 440.305 323.967 435.129C324.65 432.492 325.627 428.586 326.896 423.41C328.166 418.137 329.582 412.521 331.145 406.564C332.707 400.607 334.123 395.139 335.393 390.158C336.76 385.178 337.834 381.516 338.615 379.172C339.494 376.047 340.422 373.85 341.398 372.58C342.375 371.311 343.742 370.676 345.5 370.676C347.258 370.676 348.625 371.311 349.602 372.58C350.578 373.85 351.604 376.047 352.678 379.172C353.361 381.516 354.338 385.178 355.607 390.158C356.975 395.139 358.391 400.607 359.855 406.564C361.418 412.521 362.834 418.137 364.104 423.41C365.471 428.586 366.496 432.492 367.18 435.129C368.449 440.305 371.184 442.893 375.383 442.893C378.312 442.893 380.51 441.818 381.975 439.67C383.439 437.424 383.781 434.885 383 432.053C382.902 431.662 382.365 429.514 381.389 425.607C380.51 421.701 379.387 416.916 378.02 411.252C376.652 405.49 375.236 399.582 373.771 393.527C372.404 387.473 371.184 382.004 370.109 377.121C369.035 372.141 368.352 368.527 368.059 366.281C367.473 362.668 367.033 357.98 366.74 352.219C366.545 346.457 366.398 340.891 366.301 335.52C366.301 330.148 366.301 326.193 366.301 323.654C366.301 318.381 368.498 315.256 372.893 314.279C373.967 314.182 376.457 313.889 380.363 313.4C384.367 312.814 388.811 312.229 393.693 311.643C398.576 310.959 403.02 310.324 407.023 309.738C411.125 309.152 413.713 308.664 414.787 308.273C418.986 307.199 421.086 304.465 421.086 300.07C421.086 297.434 420.256 295.432 418.596 294.064C416.936 292.6 415.275 291.867 413.615 291.867C412.932 291.867 412.248 291.916 411.564 292.014C410.881 292.111 410.246 292.209 409.66 292.307C404.973 293.088 398.918 293.918 391.496 294.797C384.172 295.676 376.408 296.457 368.205 297.141C360.002 297.727 352.434 298.02 345.5 298.02ZM345.5 288.498C350.676 288.498 355.119 286.643 358.83 282.932C362.639 279.123 364.543 274.68 364.543 269.602C364.543 264.23 362.639 259.738 358.83 256.125C355.119 252.414 350.676 250.559 345.5 250.559C340.227 250.559 335.734 252.414 332.023 256.125C328.41 259.738 326.604 264.23 326.604 269.602C326.604 274.68 328.41 279.123 332.023 282.932C335.734 286.643 340.227 288.498 345.5 288.498Z" fill="#212121"/>
</svg>
