<svg width="282" height="282" viewBox="0 0 282 282" fill="none" xmlns="http://www.w3.org/2000/svg">
<rect width="282" height="282" fill="white"/>
<path d="M16 16H22.7568V22.7568H16V16ZM22.7568 16H29.5135V22.7568H22.7568V16ZM29.5135 16H36.2703V22.7568H29.5135V16ZM36.2703 16H43.027V22.7568H36.2703V16ZM43.027 16H49.7838V22.7568H43.027V16ZM49.7838 16H56.5405V22.7568H49.7838V16ZM56.5405 16H63.2973V22.7568H56.5405V16ZM70.0541 16H76.8108V22.7568H70.0541V16ZM117.351 16H124.108V22.7568H117.351V16ZM124.108 16H130.865V22.7568H124.108V16ZM130.865 16H137.622V22.7568H130.865V16ZM137.622 16H144.378V22.7568H137.622V16ZM151.135 16H157.892V22.7568H151.135V16ZM157.892 16H164.649V22.7568H157.892V16ZM164.649 16H171.405V22.7568H164.649V16ZM178.162 16H184.919V22.7568H178.162V16ZM184.919 16H191.676V22.7568H184.919V16ZM218.703 16H225.459V22.7568H218.703V16ZM225.459 16H232.216V22.7568H225.459V16ZM232.216 16H238.973V22.7568H232.216V16ZM238.973 16H245.73V22.7568H238.973V16ZM245.73 16H252.486V22.7568H245.73V16ZM252.486 16H259.243V22.7568H252.486V16ZM259.243 16H266V22.7568H259.243V16ZM16 22.7568H22.7568V29.5135H16V22.7568ZM56.5405 22.7568H63.2973V29.5135H56.5405V22.7568ZM76.8108 22.7568H83.5676V29.5135H76.8108V22.7568ZM83.5676 22.7568H90.3243V29.5135H83.5676V22.7568ZM90.3243 22.7568H97.0811V29.5135H90.3243V22.7568ZM103.838 22.7568H110.595V29.5135H103.838V22.7568ZM110.595 22.7568H117.351V29.5135H110.595V22.7568ZM117.351 22.7568H124.108V29.5135H117.351V22.7568ZM130.865 22.7568H137.622V29.5135H130.865V22.7568ZM144.378 22.7568H151.135V29.5135H144.378V22.7568ZM184.919 22.7568H191.676V29.5135H184.919V22.7568ZM191.676 22.7568H198.432V29.5135H191.676V22.7568ZM198.432 22.7568H205.189V29.5135H198.432V22.7568ZM205.189 22.7568H211.946V29.5135H205.189V22.7568ZM218.703 22.7568H225.459V29.5135H218.703V22.7568ZM259.243 22.7568H266V29.5135H259.243V22.7568ZM16 29.5135H22.7568V36.2703H16V29.5135ZM29.5135 29.5135H36.2703V36.2703H29.5135V29.5135ZM36.2703 29.5135H43.027V36.2703H36.2703V29.5135ZM43.027 29.5135H49.7838V36.2703H43.027V29.5135ZM56.5405 29.5135H63.2973V36.2703H56.5405V29.5135ZM76.8108 29.5135H83.5676V36.2703H76.8108V29.5135ZM83.5676 29.5135H90.3243V36.2703H83.5676V29.5135ZM90.3243 29.5135H97.0811V36.2703H90.3243V29.5135ZM110.595 29.5135H117.351V36.2703H110.595V29.5135ZM117.351 29.5135H124.108V36.2703H117.351V29.5135ZM157.892 29.5135H164.649V36.2703H157.892V29.5135ZM164.649 29.5135H171.405V36.2703H164.649V29.5135ZM178.162 29.5135H184.919V36.2703H178.162V29.5135ZM191.676 29.5135H198.432V36.2703H191.676V29.5135ZM198.432 29.5135H205.189V36.2703H198.432V29.5135ZM205.189 29.5135H211.946V36.2703H205.189V29.5135ZM218.703 29.5135H225.459V36.2703H218.703V29.5135ZM232.216 29.5135H238.973V36.2703H232.216V29.5135ZM238.973 29.5135H245.73V36.2703H238.973V29.5135ZM245.73 29.5135H252.486V36.2703H245.73V29.5135ZM259.243 29.5135H266V36.2703H259.243V29.5135ZM16 36.2703H22.7568V43.027H16V36.2703ZM29.5135 36.2703H36.2703V43.027H29.5135V36.2703ZM36.2703 36.2703H43.027V43.027H36.2703V36.2703ZM43.027 36.2703H49.7838V43.027H43.027V36.2703ZM56.5405 36.2703H63.2973V43.027H56.5405V36.2703ZM90.3243 36.2703H97.0811V43.027H90.3243V36.2703ZM97.0811 36.2703H103.838V43.027H97.0811V36.2703ZM117.351 36.2703H124.108V43.027H117.351V36.2703ZM130.865 36.2703H137.622V43.027H130.865V36.2703ZM184.919 36.2703H191.676V43.027H184.919V36.2703ZM191.676 36.2703H198.432V43.027H191.676V36.2703ZM218.703 36.2703H225.459V43.027H218.703V36.2703ZM232.216 36.2703H238.973V43.027H232.216V36.2703ZM238.973 36.2703H245.73V43.027H238.973V36.2703ZM245.73 36.2703H252.486V43.027H245.73V36.2703ZM259.243 36.2703H266V43.027H259.243V36.2703ZM16 43.027H22.7568V49.7838H16V43.027ZM29.5135 43.027H36.2703V49.7838H29.5135V43.027ZM36.2703 43.027H43.027V49.7838H36.2703V43.027ZM43.027 43.027H49.7838V49.7838H43.027V43.027ZM56.5405 43.027H63.2973V49.7838H56.5405V43.027ZM70.0541 43.027H76.8108V49.7838H70.0541V43.027ZM90.3243 43.027H97.0811V49.7838H90.3243V43.027ZM103.838 43.027H110.595V49.7838H103.838V43.027ZM124.108 43.027H130.865V49.7838H124.108V43.027ZM137.622 43.027H144.378V49.7838H137.622V43.027ZM144.378 43.027H151.135V49.7838H144.378V43.027ZM157.892 43.027H164.649V49.7838H157.892V43.027ZM171.405 43.027H178.162V49.7838H171.405V43.027ZM178.162 43.027H184.919V49.7838H178.162V43.027ZM218.703 43.027H225.459V49.7838H218.703V43.027ZM232.216 43.027H238.973V49.7838H232.216V43.027ZM238.973 43.027H245.73V49.7838H238.973V43.027ZM245.73 43.027H252.486V49.7838H245.73V43.027ZM259.243 43.027H266V49.7838H259.243V43.027ZM16 49.7838H22.7568V56.5405H16V49.7838ZM56.5405 49.7838H63.2973V56.5405H56.5405V49.7838ZM70.0541 49.7838H76.8108V56.5405H70.0541V49.7838ZM76.8108 49.7838H83.5676V56.5405H76.8108V49.7838ZM83.5676 49.7838H90.3243V56.5405H83.5676V49.7838ZM97.0811 49.7838H103.838V56.5405H97.0811V49.7838ZM103.838 49.7838H110.595V56.5405H103.838V49.7838ZM110.595 49.7838H117.351V56.5405H110.595V49.7838ZM117.351 49.7838H124.108V56.5405H117.351V49.7838ZM130.865 49.7838H137.622V56.5405H130.865V49.7838ZM151.135 49.7838H157.892V56.5405H151.135V49.7838ZM157.892 49.7838H164.649V56.5405H157.892V49.7838ZM198.432 49.7838H205.189V56.5405H198.432V49.7838ZM205.189 49.7838H211.946V56.5405H205.189V49.7838ZM218.703 49.7838H225.459V56.5405H218.703V49.7838ZM259.243 49.7838H266V56.5405H259.243V49.7838ZM16 56.5405H22.7568V63.2973H16V56.5405ZM22.7568 56.5405H29.5135V63.2973H22.7568V56.5405ZM29.5135 56.5405H36.2703V63.2973H29.5135V56.5405ZM36.2703 56.5405H43.027V63.2973H36.2703V56.5405ZM43.027 56.5405H49.7838V63.2973H43.027V56.5405ZM49.7838 56.5405H56.5405V63.2973H49.7838V56.5405ZM56.5405 56.5405H63.2973V63.2973H56.5405V56.5405ZM70.0541 56.5405H76.8108V63.2973H70.0541V56.5405ZM83.5676 56.5405H90.3243V63.2973H83.5676V56.5405ZM97.0811 56.5405H103.838V63.2973H97.0811V56.5405ZM110.595 56.5405H117.351V63.2973H110.595V56.5405ZM124.108 56.5405H130.865V63.2973H124.108V56.5405ZM137.622 56.5405H144.378V63.2973H137.622V56.5405ZM151.135 56.5405H157.892V63.2973H151.135V56.5405ZM164.649 56.5405H171.405V63.2973H164.649V56.5405ZM178.162 56.5405H184.919V63.2973H178.162V56.5405ZM191.676 56.5405H198.432V63.2973H191.676V56.5405ZM205.189 56.5405H211.946V63.2973H205.189V56.5405ZM218.703 56.5405H225.459V63.2973H218.703V56.5405ZM225.459 56.5405H232.216V63.2973H225.459V56.5405ZM232.216 56.5405H238.973V63.2973H232.216V56.5405ZM238.973 56.5405H245.73V63.2973H238.973V56.5405ZM245.73 56.5405H252.486V63.2973H245.73V56.5405ZM252.486 56.5405H259.243V63.2973H252.486V56.5405ZM259.243 56.5405H266V63.2973H259.243V56.5405ZM90.3243 63.2973H97.0811V70.0541H90.3243V63.2973ZM97.0811 63.2973H103.838V70.0541H97.0811V63.2973ZM110.595 63.2973H117.351V70.0541H110.595V63.2973ZM124.108 63.2973H130.865V70.0541H124.108V63.2973ZM137.622 63.2973H144.378V70.0541H137.622V63.2973ZM144.378 63.2973H151.135V70.0541H144.378V63.2973ZM151.135 63.2973H157.892V70.0541H151.135V63.2973ZM157.892 63.2973H164.649V70.0541H157.892V63.2973ZM164.649 63.2973H171.405V70.0541H164.649V63.2973ZM171.405 63.2973H178.162V70.0541H171.405V63.2973ZM191.676 63.2973H198.432V70.0541H191.676V63.2973ZM205.189 63.2973H211.946V70.0541H205.189V63.2973ZM22.7568 70.0541H29.5135V76.8108H22.7568V70.0541ZM29.5135 70.0541H36.2703V76.8108H29.5135V70.0541ZM36.2703 70.0541H43.027V76.8108H36.2703V70.0541ZM43.027 70.0541H49.7838V76.8108H43.027V70.0541ZM49.7838 70.0541H56.5405V76.8108H49.7838V70.0541ZM56.5405 70.0541H63.2973V76.8108H56.5405V70.0541ZM63.2973 70.0541H70.0541V76.8108H63.2973V70.0541ZM76.8108 70.0541H83.5676V76.8108H76.8108V70.0541ZM83.5676 70.0541H90.3243V76.8108H83.5676V70.0541ZM90.3243 70.0541H97.0811V76.8108H90.3243V70.0541ZM97.0811 70.0541H103.838V76.8108H97.0811V70.0541ZM103.838 70.0541H110.595V76.8108H103.838V70.0541ZM117.351 70.0541H124.108V76.8108H117.351V70.0541ZM137.622 70.0541H144.378V76.8108H137.622V70.0541ZM144.378 70.0541H151.135V76.8108H144.378V70.0541ZM151.135 70.0541H157.892V76.8108H151.135V70.0541ZM164.649 70.0541H171.405V76.8108H164.649V70.0541ZM178.162 70.0541H184.919V76.8108H178.162V70.0541ZM225.459 70.0541H232.216V76.8108H225.459V70.0541ZM232.216 70.0541H238.973V76.8108H232.216V70.0541ZM259.243 70.0541H266V76.8108H259.243V70.0541ZM43.027 76.8108H49.7838V83.5676H43.027V76.8108ZM70.0541 76.8108H76.8108V83.5676H70.0541V76.8108ZM76.8108 76.8108H83.5676V83.5676H76.8108V76.8108ZM90.3243 76.8108H97.0811V83.5676H90.3243V76.8108ZM97.0811 76.8108H103.838V83.5676H97.0811V76.8108ZM103.838 76.8108H110.595V83.5676H103.838V76.8108ZM110.595 76.8108H117.351V83.5676H110.595V76.8108ZM117.351 76.8108H124.108V83.5676H117.351V76.8108ZM130.865 76.8108H137.622V83.5676H130.865V76.8108ZM137.622 76.8108H144.378V83.5676H137.622V76.8108ZM144.378 76.8108H151.135V83.5676H144.378V76.8108ZM151.135 76.8108H157.892V83.5676H151.135V76.8108ZM157.892 76.8108H164.649V83.5676H157.892V76.8108ZM164.649 76.8108H171.405V83.5676H164.649V76.8108ZM171.405 76.8108H178.162V83.5676H171.405V76.8108ZM184.919 76.8108H191.676V83.5676H184.919V76.8108ZM191.676 76.8108H198.432V83.5676H191.676V76.8108ZM198.432 76.8108H205.189V83.5676H198.432V76.8108ZM205.189 76.8108H211.946V83.5676H205.189V76.8108ZM218.703 76.8108H225.459V83.5676H218.703V76.8108ZM16 83.5676H22.7568V90.3243H16V83.5676ZM29.5135 83.5676H36.2703V90.3243H29.5135V83.5676ZM36.2703 83.5676H43.027V90.3243H36.2703V83.5676ZM56.5405 83.5676H63.2973V90.3243H56.5405V83.5676ZM63.2973 83.5676H70.0541V90.3243H63.2973V83.5676ZM90.3243 83.5676H97.0811V90.3243H90.3243V83.5676ZM97.0811 83.5676H103.838V90.3243H97.0811V83.5676ZM110.595 83.5676H117.351V90.3243H110.595V83.5676ZM117.351 83.5676H124.108V90.3243H117.351V83.5676ZM130.865 83.5676H137.622V90.3243H130.865V83.5676ZM137.622 83.5676H144.378V90.3243H137.622V83.5676ZM157.892 83.5676H164.649V90.3243H157.892V83.5676ZM164.649 83.5676H171.405V90.3243H164.649V83.5676ZM184.919 83.5676H191.676V90.3243H184.919V83.5676ZM191.676 83.5676H198.432V90.3243H191.676V83.5676ZM218.703 83.5676H225.459V90.3243H218.703V83.5676ZM225.459 83.5676H232.216V90.3243H225.459V83.5676ZM252.486 83.5676H259.243V90.3243H252.486V83.5676ZM259.243 83.5676H266V90.3243H259.243V83.5676ZM16 90.3243H22.7568V97.0811H16V90.3243ZM22.7568 90.3243H29.5135V97.0811H22.7568V90.3243ZM49.7838 90.3243H56.5405V97.0811H49.7838V90.3243ZM76.8108 90.3243H83.5676V97.0811H76.8108V90.3243ZM90.3243 90.3243H97.0811V97.0811H90.3243V90.3243ZM103.838 90.3243H110.595V97.0811H103.838V90.3243ZM110.595 90.3243H117.351V97.0811H110.595V90.3243ZM117.351 90.3243H124.108V97.0811H117.351V90.3243ZM124.108 90.3243H130.865V97.0811H124.108V90.3243ZM130.865 90.3243H137.622V97.0811H130.865V90.3243ZM151.135 90.3243H157.892V97.0811H151.135V90.3243ZM157.892 90.3243H164.649V97.0811H157.892V90.3243ZM164.649 90.3243H171.405V97.0811H164.649V90.3243ZM171.405 90.3243H178.162V97.0811H171.405V90.3243ZM191.676 90.3243H198.432V97.0811H191.676V90.3243ZM205.189 90.3243H211.946V97.0811H205.189V90.3243ZM218.703 90.3243H225.459V97.0811H218.703V90.3243ZM232.216 90.3243H238.973V97.0811H232.216V90.3243ZM238.973 90.3243H245.73V97.0811H238.973V90.3243ZM252.486 90.3243H259.243V97.0811H252.486V90.3243ZM16 97.0811H22.7568V103.838H16V97.0811ZM22.7568 97.0811H29.5135V103.838H22.7568V97.0811ZM29.5135 97.0811H36.2703V103.838H29.5135V97.0811ZM56.5405 97.0811H63.2973V103.838H56.5405V97.0811ZM63.2973 97.0811H70.0541V103.838H63.2973V97.0811ZM97.0811 97.0811H103.838V103.838H97.0811V97.0811ZM124.108 97.0811H130.865V103.838H124.108V97.0811ZM130.865 97.0811H137.622V103.838H130.865V97.0811ZM144.378 97.0811H151.135V103.838H144.378V97.0811ZM151.135 97.0811H157.892V103.838H151.135V97.0811ZM171.405 97.0811H178.162V103.838H171.405V97.0811ZM184.919 97.0811H191.676V103.838H184.919V97.0811ZM191.676 97.0811H198.432V103.838H191.676V97.0811ZM211.946 97.0811H218.703V103.838H211.946V97.0811ZM218.703 97.0811H225.459V103.838H218.703V97.0811ZM225.459 97.0811H232.216V103.838H225.459V97.0811ZM232.216 97.0811H238.973V103.838H232.216V97.0811ZM245.73 97.0811H252.486V103.838H245.73V97.0811ZM252.486 97.0811H259.243V103.838H252.486V97.0811ZM16 103.838H22.7568V110.595H16V103.838ZM29.5135 103.838H36.2703V110.595H29.5135V103.838ZM43.027 103.838H49.7838V110.595H43.027V103.838ZM49.7838 103.838H56.5405V110.595H49.7838V103.838ZM63.2973 103.838H70.0541V110.595H63.2973V103.838ZM70.0541 103.838H76.8108V110.595H70.0541V103.838ZM76.8108 103.838H83.5676V110.595H76.8108V103.838ZM97.0811 103.838H103.838V110.595H97.0811V103.838ZM110.595 103.838H117.351V110.595H110.595V103.838ZM117.351 103.838H124.108V110.595H117.351V103.838ZM124.108 103.838H130.865V110.595H124.108V103.838ZM164.649 103.838H171.405V110.595H164.649V103.838ZM171.405 103.838H178.162V110.595H171.405V103.838ZM184.919 103.838H191.676V110.595H184.919V103.838ZM211.946 103.838H218.703V110.595H211.946V103.838ZM225.459 103.838H232.216V110.595H225.459V103.838ZM238.973 103.838H245.73V110.595H238.973V103.838ZM245.73 103.838H252.486V110.595H245.73V103.838ZM252.486 103.838H259.243V110.595H252.486V103.838ZM22.7568 110.595H29.5135V117.351H22.7568V110.595ZM29.5135 110.595H36.2703V117.351H29.5135V110.595ZM36.2703 110.595H43.027V117.351H36.2703V110.595ZM43.027 110.595H49.7838V117.351H43.027V110.595ZM49.7838 110.595H56.5405V117.351H49.7838V110.595ZM56.5405 110.595H63.2973V117.351H56.5405V110.595ZM63.2973 110.595H70.0541V117.351H63.2973V110.595ZM70.0541 110.595H76.8108V117.351H70.0541V110.595ZM76.8108 110.595H83.5676V117.351H76.8108V110.595ZM83.5676 110.595H90.3243V117.351H83.5676V110.595ZM90.3243 110.595H97.0811V117.351H90.3243V110.595ZM103.838 110.595H110.595V117.351H103.838V110.595ZM110.595 110.595H117.351V117.351H110.595V110.595ZM117.351 110.595H124.108V117.351H117.351V110.595ZM137.622 110.595H144.378V117.351H137.622V110.595ZM151.135 110.595H157.892V117.351H151.135V110.595ZM164.649 110.595H171.405V117.351H164.649V110.595ZM178.162 110.595H184.919V117.351H178.162V110.595ZM184.919 110.595H191.676V117.351H184.919V110.595ZM191.676 110.595H198.432V117.351H191.676V110.595ZM198.432 110.595H205.189V117.351H198.432V110.595ZM205.189 110.595H211.946V117.351H205.189V110.595ZM211.946 110.595H218.703V117.351H211.946V110.595ZM225.459 110.595H232.216V117.351H225.459V110.595ZM238.973 110.595H245.73V117.351H238.973V110.595ZM252.486 110.595H259.243V117.351H252.486V110.595ZM259.243 110.595H266V117.351H259.243V110.595ZM29.5135 117.351H36.2703V124.108H29.5135V117.351ZM43.027 117.351H49.7838V124.108H43.027V117.351ZM70.0541 117.351H76.8108V124.108H70.0541V117.351ZM76.8108 117.351H83.5676V124.108H76.8108V117.351ZM83.5676 117.351H90.3243V124.108H83.5676V117.351ZM97.0811 117.351H103.838V124.108H97.0811V117.351ZM103.838 117.351H110.595V124.108H103.838V117.351ZM117.351 117.351H124.108V124.108H117.351V117.351ZM130.865 117.351H137.622V124.108H130.865V117.351ZM137.622 117.351H144.378V124.108H137.622V117.351ZM144.378 117.351H151.135V124.108H144.378V117.351ZM151.135 117.351H157.892V124.108H151.135V117.351ZM178.162 117.351H184.919V124.108H178.162V117.351ZM191.676 117.351H198.432V124.108H191.676V117.351ZM225.459 117.351H232.216V124.108H225.459V117.351ZM259.243 117.351H266V124.108H259.243V117.351ZM22.7568 124.108H29.5135V130.865H22.7568V124.108ZM56.5405 124.108H63.2973V130.865H56.5405V124.108ZM63.2973 124.108H70.0541V130.865H63.2973V124.108ZM70.0541 124.108H76.8108V130.865H70.0541V124.108ZM90.3243 124.108H97.0811V130.865H90.3243V124.108ZM103.838 124.108H110.595V130.865H103.838V124.108ZM124.108 124.108H130.865V130.865H124.108V124.108ZM157.892 124.108H164.649V130.865H157.892V124.108ZM164.649 124.108H171.405V130.865H164.649V124.108ZM178.162 124.108H184.919V130.865H178.162V124.108ZM184.919 124.108H191.676V130.865H184.919V124.108ZM191.676 124.108H198.432V130.865H191.676V124.108ZM198.432 124.108H205.189V130.865H198.432V124.108ZM211.946 124.108H218.703V130.865H211.946V124.108ZM218.703 124.108H225.459V130.865H218.703V124.108ZM232.216 124.108H238.973V130.865H232.216V124.108ZM245.73 124.108H252.486V130.865H245.73V124.108ZM259.243 124.108H266V130.865H259.243V124.108ZM29.5135 130.865H36.2703V137.622H29.5135V130.865ZM63.2973 130.865H70.0541V137.622H63.2973V130.865ZM70.0541 130.865H76.8108V137.622H70.0541V130.865ZM83.5676 130.865H90.3243V137.622H83.5676V130.865ZM90.3243 130.865H97.0811V137.622H90.3243V130.865ZM97.0811 130.865H103.838V137.622H97.0811V130.865ZM103.838 130.865H110.595V137.622H103.838V130.865ZM117.351 130.865H124.108V137.622H117.351V130.865ZM124.108 130.865H130.865V137.622H124.108V130.865ZM130.865 130.865H137.622V137.622H130.865V130.865ZM137.622 130.865H144.378V137.622H137.622V130.865ZM151.135 130.865H157.892V137.622H151.135V130.865ZM184.919 130.865H191.676V137.622H184.919V130.865ZM191.676 130.865H198.432V137.622H191.676V130.865ZM205.189 130.865H211.946V137.622H205.189V130.865ZM238.973 130.865H245.73V137.622H238.973V130.865ZM22.7568 137.622H29.5135V144.378H22.7568V137.622ZM29.5135 137.622H36.2703V144.378H29.5135V137.622ZM49.7838 137.622H56.5405V144.378H49.7838V137.622ZM56.5405 137.622H63.2973V144.378H56.5405V137.622ZM83.5676 137.622H90.3243V144.378H83.5676V137.622ZM90.3243 137.622H97.0811V144.378H90.3243V137.622ZM97.0811 137.622H103.838V144.378H97.0811V137.622ZM103.838 137.622H110.595V144.378H103.838V137.622ZM124.108 137.622H130.865V144.378H124.108V137.622ZM144.378 137.622H151.135V144.378H144.378V137.622ZM164.649 137.622H171.405V144.378H164.649V137.622ZM171.405 137.622H178.162V144.378H171.405V137.622ZM178.162 137.622H184.919V144.378H178.162V137.622ZM198.432 137.622H205.189V144.378H198.432V137.622ZM205.189 137.622H211.946V144.378H205.189V137.622ZM218.703 137.622H225.459V144.378H218.703V137.622ZM225.459 137.622H232.216V144.378H225.459V137.622ZM238.973 137.622H245.73V144.378H238.973V137.622ZM252.486 137.622H259.243V144.378H252.486V137.622ZM259.243 137.622H266V144.378H259.243V137.622ZM16 144.378H22.7568V151.135H16V144.378ZM29.5135 144.378H36.2703V151.135H29.5135V144.378ZM36.2703 144.378H43.027V151.135H36.2703V144.378ZM76.8108 144.378H83.5676V151.135H76.8108V144.378ZM83.5676 144.378H90.3243V151.135H83.5676V144.378ZM97.0811 144.378H103.838V151.135H97.0811V144.378ZM103.838 144.378H110.595V151.135H103.838V144.378ZM117.351 144.378H124.108V151.135H117.351V144.378ZM124.108 144.378H130.865V151.135H124.108V144.378ZM137.622 144.378H144.378V151.135H137.622V144.378ZM151.135 144.378H157.892V151.135H151.135V144.378ZM157.892 144.378H164.649V151.135H157.892V144.378ZM171.405 144.378H178.162V151.135H171.405V144.378ZM191.676 144.378H198.432V151.135H191.676V144.378ZM205.189 144.378H211.946V151.135H205.189V144.378ZM225.459 144.378H232.216V151.135H225.459V144.378ZM252.486 144.378H259.243V151.135H252.486V144.378ZM259.243 144.378H266V151.135H259.243V144.378ZM16 151.135H22.7568V157.892H16V151.135ZM22.7568 151.135H29.5135V157.892H22.7568V151.135ZM29.5135 151.135H36.2703V157.892H29.5135V151.135ZM36.2703 151.135H43.027V157.892H36.2703V151.135ZM43.027 151.135H49.7838V157.892H43.027V151.135ZM49.7838 151.135H56.5405V157.892H49.7838V151.135ZM56.5405 151.135H63.2973V157.892H56.5405V151.135ZM83.5676 151.135H90.3243V157.892H83.5676V151.135ZM90.3243 151.135H97.0811V157.892H90.3243V151.135ZM97.0811 151.135H103.838V157.892H97.0811V151.135ZM103.838 151.135H110.595V157.892H103.838V151.135ZM117.351 151.135H124.108V157.892H117.351V151.135ZM124.108 151.135H130.865V157.892H124.108V151.135ZM137.622 151.135H144.378V157.892H137.622V151.135ZM164.649 151.135H171.405V157.892H164.649V151.135ZM171.405 151.135H178.162V157.892H171.405V151.135ZM184.919 151.135H191.676V157.892H184.919V151.135ZM191.676 151.135H198.432V157.892H191.676V151.135ZM211.946 151.135H218.703V157.892H211.946V151.135ZM218.703 151.135H225.459V157.892H218.703V151.135ZM225.459 151.135H232.216V157.892H225.459V151.135ZM232.216 151.135H238.973V157.892H232.216V151.135ZM238.973 151.135H245.73V157.892H238.973V151.135ZM245.73 151.135H252.486V157.892H245.73V151.135ZM259.243 151.135H266V157.892H259.243V151.135ZM16 157.892H22.7568V164.649H16V157.892ZM29.5135 157.892H36.2703V164.649H29.5135V157.892ZM49.7838 157.892H56.5405V164.649H49.7838V157.892ZM63.2973 157.892H70.0541V164.649H63.2973V157.892ZM76.8108 157.892H83.5676V164.649H76.8108V157.892ZM83.5676 157.892H90.3243V164.649H83.5676V157.892ZM90.3243 157.892H97.0811V164.649H90.3243V157.892ZM110.595 157.892H117.351V164.649H110.595V157.892ZM124.108 157.892H130.865V164.649H124.108V157.892ZM130.865 157.892H137.622V164.649H130.865V157.892ZM137.622 157.892H144.378V164.649H137.622V157.892ZM144.378 157.892H151.135V164.649H144.378V157.892ZM151.135 157.892H157.892V164.649H151.135V157.892ZM157.892 157.892H164.649V164.649H157.892V157.892ZM171.405 157.892H178.162V164.649H171.405V157.892ZM178.162 157.892H184.919V164.649H178.162V157.892ZM184.919 157.892H191.676V164.649H184.919V157.892ZM225.459 157.892H232.216V164.649H225.459V157.892ZM245.73 157.892H252.486V164.649H245.73V157.892ZM252.486 157.892H259.243V164.649H252.486V157.892ZM22.7568 164.649H29.5135V171.405H22.7568V164.649ZM29.5135 164.649H36.2703V171.405H29.5135V164.649ZM43.027 164.649H49.7838V171.405H43.027V164.649ZM56.5405 164.649H63.2973V171.405H56.5405V164.649ZM70.0541 164.649H76.8108V171.405H70.0541V164.649ZM76.8108 164.649H83.5676V171.405H76.8108V164.649ZM90.3243 164.649H97.0811V171.405H90.3243V164.649ZM137.622 164.649H144.378V171.405H137.622V164.649ZM151.135 164.649H157.892V171.405H151.135V164.649ZM157.892 164.649H164.649V171.405H157.892V164.649ZM178.162 164.649H184.919V171.405H178.162V164.649ZM184.919 164.649H191.676V171.405H184.919V164.649ZM191.676 164.649H198.432V171.405H191.676V164.649ZM198.432 164.649H205.189V171.405H198.432V164.649ZM211.946 164.649H218.703V171.405H211.946V164.649ZM238.973 164.649H245.73V171.405H238.973V164.649ZM259.243 164.649H266V171.405H259.243V164.649ZM29.5135 171.405H36.2703V178.162H29.5135V171.405ZM49.7838 171.405H56.5405V178.162H49.7838V171.405ZM70.0541 171.405H76.8108V178.162H70.0541V171.405ZM97.0811 171.405H103.838V178.162H97.0811V171.405ZM117.351 171.405H124.108V178.162H117.351V171.405ZM130.865 171.405H137.622V178.162H130.865V171.405ZM157.892 171.405H164.649V178.162H157.892V171.405ZM171.405 171.405H178.162V178.162H171.405V171.405ZM184.919 171.405H191.676V178.162H184.919V171.405ZM225.459 171.405H232.216V178.162H225.459V171.405ZM16 178.162H22.7568V184.919H16V178.162ZM36.2703 178.162H43.027V184.919H36.2703V178.162ZM43.027 178.162H49.7838V184.919H43.027V178.162ZM56.5405 178.162H63.2973V184.919H56.5405V178.162ZM70.0541 178.162H76.8108V184.919H70.0541V178.162ZM83.5676 178.162H90.3243V184.919H83.5676V178.162ZM90.3243 178.162H97.0811V184.919H90.3243V178.162ZM97.0811 178.162H103.838V184.919H97.0811V178.162ZM103.838 178.162H110.595V184.919H103.838V178.162ZM110.595 178.162H117.351V184.919H110.595V178.162ZM130.865 178.162H137.622V184.919H130.865V178.162ZM137.622 178.162H144.378V184.919H137.622V178.162ZM144.378 178.162H151.135V184.919H144.378V178.162ZM151.135 178.162H157.892V184.919H151.135V178.162ZM164.649 178.162H171.405V184.919H164.649V178.162ZM178.162 178.162H184.919V184.919H178.162V178.162ZM191.676 178.162H198.432V184.919H191.676V178.162ZM205.189 178.162H211.946V184.919H205.189V178.162ZM211.946 178.162H218.703V184.919H211.946V178.162ZM225.459 178.162H232.216V184.919H225.459V178.162ZM232.216 178.162H238.973V184.919H232.216V178.162ZM238.973 178.162H245.73V184.919H238.973V178.162ZM245.73 178.162H252.486V184.919H245.73V178.162ZM259.243 178.162H266V184.919H259.243V178.162ZM16 184.919H22.7568V191.676H16V184.919ZM22.7568 184.919H29.5135V191.676H22.7568V184.919ZM36.2703 184.919H43.027V191.676H36.2703V184.919ZM43.027 184.919H49.7838V191.676H43.027V184.919ZM70.0541 184.919H76.8108V191.676H70.0541V184.919ZM76.8108 184.919H83.5676V191.676H76.8108V184.919ZM83.5676 184.919H90.3243V191.676H83.5676V184.919ZM90.3243 184.919H97.0811V191.676H90.3243V184.919ZM103.838 184.919H110.595V191.676H103.838V184.919ZM110.595 184.919H117.351V191.676H110.595V184.919ZM117.351 184.919H124.108V191.676H117.351V184.919ZM144.378 184.919H151.135V191.676H144.378V184.919ZM164.649 184.919H171.405V191.676H164.649V184.919ZM171.405 184.919H178.162V191.676H171.405V184.919ZM178.162 184.919H184.919V191.676H178.162V184.919ZM198.432 184.919H205.189V191.676H198.432V184.919ZM218.703 184.919H225.459V191.676H218.703V184.919ZM238.973 184.919H245.73V191.676H238.973V184.919ZM16 191.676H22.7568V198.432H16V191.676ZM43.027 191.676H49.7838V198.432H43.027V191.676ZM56.5405 191.676H63.2973V198.432H56.5405V191.676ZM63.2973 191.676H70.0541V198.432H63.2973V191.676ZM70.0541 191.676H76.8108V198.432H70.0541V191.676ZM90.3243 191.676H97.0811V198.432H90.3243V191.676ZM97.0811 191.676H103.838V198.432H97.0811V191.676ZM103.838 191.676H110.595V198.432H103.838V191.676ZM110.595 191.676H117.351V198.432H110.595V191.676ZM117.351 191.676H124.108V198.432H117.351V191.676ZM124.108 191.676H130.865V198.432H124.108V191.676ZM130.865 191.676H137.622V198.432H130.865V191.676ZM157.892 191.676H164.649V198.432H157.892V191.676ZM198.432 191.676H205.189V198.432H198.432V191.676ZM205.189 191.676H211.946V198.432H205.189V191.676ZM218.703 191.676H225.459V198.432H218.703V191.676ZM225.459 191.676H232.216V198.432H225.459V191.676ZM232.216 191.676H238.973V198.432H232.216V191.676ZM245.73 191.676H252.486V198.432H245.73V191.676ZM259.243 191.676H266V198.432H259.243V191.676ZM16 198.432H22.7568V205.189H16V198.432ZM70.0541 198.432H76.8108V205.189H70.0541V198.432ZM83.5676 198.432H90.3243V205.189H83.5676V198.432ZM90.3243 198.432H97.0811V205.189H90.3243V198.432ZM97.0811 198.432H103.838V205.189H97.0811V198.432ZM103.838 198.432H110.595V205.189H103.838V198.432ZM124.108 198.432H130.865V205.189H124.108V198.432ZM137.622 198.432H144.378V205.189H137.622V198.432ZM144.378 198.432H151.135V205.189H144.378V198.432ZM157.892 198.432H164.649V205.189H157.892V198.432ZM164.649 198.432H171.405V205.189H164.649V198.432ZM171.405 198.432H178.162V205.189H171.405V198.432ZM178.162 198.432H184.919V205.189H178.162V198.432ZM191.676 198.432H198.432V205.189H191.676V198.432ZM198.432 198.432H205.189V205.189H198.432V198.432ZM211.946 198.432H218.703V205.189H211.946V198.432ZM225.459 198.432H232.216V205.189H225.459V198.432ZM238.973 198.432H245.73V205.189H238.973V198.432ZM259.243 198.432H266V205.189H259.243V198.432ZM16 205.189H22.7568V211.946H16V205.189ZM29.5135 205.189H36.2703V211.946H29.5135V205.189ZM36.2703 205.189H43.027V211.946H36.2703V205.189ZM43.027 205.189H49.7838V211.946H43.027V205.189ZM49.7838 205.189H56.5405V211.946H49.7838V205.189ZM56.5405 205.189H63.2973V211.946H56.5405V205.189ZM63.2973 205.189H70.0541V211.946H63.2973V205.189ZM76.8108 205.189H83.5676V211.946H76.8108V205.189ZM83.5676 205.189H90.3243V211.946H83.5676V205.189ZM90.3243 205.189H97.0811V211.946H90.3243V205.189ZM97.0811 205.189H103.838V211.946H97.0811V205.189ZM124.108 205.189H130.865V211.946H124.108V205.189ZM184.919 205.189H191.676V211.946H184.919V205.189ZM191.676 205.189H198.432V211.946H191.676V205.189ZM198.432 205.189H205.189V211.946H198.432V205.189ZM205.189 205.189H211.946V211.946H205.189V205.189ZM211.946 205.189H218.703V211.946H211.946V205.189ZM218.703 205.189H225.459V211.946H218.703V205.189ZM225.459 205.189H232.216V211.946H225.459V205.189ZM232.216 205.189H238.973V211.946H232.216V205.189ZM245.73 205.189H252.486V211.946H245.73V205.189ZM259.243 205.189H266V211.946H259.243V205.189ZM70.0541 211.946H76.8108V218.703H70.0541V211.946ZM90.3243 211.946H97.0811V218.703H90.3243V211.946ZM103.838 211.946H110.595V218.703H103.838V211.946ZM137.622 211.946H144.378V218.703H137.622V211.946ZM144.378 211.946H151.135V218.703H144.378V211.946ZM157.892 211.946H164.649V218.703H157.892V211.946ZM164.649 211.946H171.405V218.703H164.649V211.946ZM171.405 211.946H178.162V218.703H171.405V211.946ZM191.676 211.946H198.432V218.703H191.676V211.946ZM205.189 211.946H211.946V218.703H205.189V211.946ZM232.216 211.946H238.973V218.703H232.216V211.946ZM252.486 211.946H259.243V218.703H252.486V211.946ZM16 218.703H22.7568V225.459H16V218.703ZM22.7568 218.703H29.5135V225.459H22.7568V218.703ZM29.5135 218.703H36.2703V225.459H29.5135V218.703ZM36.2703 218.703H43.027V225.459H36.2703V218.703ZM43.027 218.703H49.7838V225.459H43.027V218.703ZM49.7838 218.703H56.5405V225.459H49.7838V218.703ZM56.5405 218.703H63.2973V225.459H56.5405V218.703ZM70.0541 218.703H76.8108V225.459H70.0541V218.703ZM90.3243 218.703H97.0811V225.459H90.3243V218.703ZM130.865 218.703H137.622V225.459H130.865V218.703ZM137.622 218.703H144.378V225.459H137.622V218.703ZM144.378 218.703H151.135V225.459H144.378V218.703ZM151.135 218.703H157.892V225.459H151.135V218.703ZM157.892 218.703H164.649V225.459H157.892V218.703ZM178.162 218.703H184.919V225.459H178.162V218.703ZM191.676 218.703H198.432V225.459H191.676V218.703ZM205.189 218.703H211.946V225.459H205.189V218.703ZM218.703 218.703H225.459V225.459H218.703V218.703ZM232.216 218.703H238.973V225.459H232.216V218.703ZM238.973 218.703H245.73V225.459H238.973V218.703ZM252.486 218.703H259.243V225.459H252.486V218.703ZM259.243 218.703H266V225.459H259.243V218.703ZM16 225.459H22.7568V232.216H16V225.459ZM56.5405 225.459H63.2973V232.216H56.5405V225.459ZM70.0541 225.459H76.8108V232.216H70.0541V225.459ZM76.8108 225.459H83.5676V232.216H76.8108V225.459ZM90.3243 225.459H97.0811V232.216H90.3243V225.459ZM103.838 225.459H110.595V232.216H103.838V225.459ZM110.595 225.459H117.351V232.216H110.595V225.459ZM130.865 225.459H137.622V232.216H130.865V225.459ZM157.892 225.459H164.649V232.216H157.892V225.459ZM164.649 225.459H171.405V232.216H164.649V225.459ZM178.162 225.459H184.919V232.216H178.162V225.459ZM191.676 225.459H198.432V232.216H191.676V225.459ZM205.189 225.459H211.946V232.216H205.189V225.459ZM232.216 225.459H238.973V232.216H232.216V225.459ZM252.486 225.459H259.243V232.216H252.486V225.459ZM259.243 225.459H266V232.216H259.243V225.459ZM16 232.216H22.7568V238.973H16V232.216ZM29.5135 232.216H36.2703V238.973H29.5135V232.216ZM36.2703 232.216H43.027V238.973H36.2703V232.216ZM43.027 232.216H49.7838V238.973H43.027V232.216ZM56.5405 232.216H63.2973V238.973H56.5405V232.216ZM70.0541 232.216H76.8108V238.973H70.0541V232.216ZM83.5676 232.216H90.3243V238.973H83.5676V232.216ZM90.3243 232.216H97.0811V238.973H90.3243V232.216ZM117.351 232.216H124.108V238.973H117.351V232.216ZM124.108 232.216H130.865V238.973H124.108V232.216ZM137.622 232.216H144.378V238.973H137.622V232.216ZM157.892 232.216H164.649V238.973H157.892V232.216ZM184.919 232.216H191.676V238.973H184.919V232.216ZM191.676 232.216H198.432V238.973H191.676V232.216ZM198.432 232.216H205.189V238.973H198.432V232.216ZM205.189 232.216H211.946V238.973H205.189V232.216ZM211.946 232.216H218.703V238.973H211.946V232.216ZM218.703 232.216H225.459V238.973H218.703V232.216ZM225.459 232.216H232.216V238.973H225.459V232.216ZM232.216 232.216H238.973V238.973H232.216V232.216ZM245.73 232.216H252.486V238.973H245.73V232.216ZM259.243 232.216H266V238.973H259.243V232.216ZM16 238.973H22.7568V245.73H16V238.973ZM29.5135 238.973H36.2703V245.73H29.5135V238.973ZM36.2703 238.973H43.027V245.73H36.2703V238.973ZM43.027 238.973H49.7838V245.73H43.027V238.973ZM56.5405 238.973H63.2973V245.73H56.5405V238.973ZM70.0541 238.973H76.8108V245.73H70.0541V238.973ZM97.0811 238.973H103.838V245.73H97.0811V238.973ZM130.865 238.973H137.622V245.73H130.865V238.973ZM137.622 238.973H144.378V245.73H137.622V238.973ZM151.135 238.973H157.892V245.73H151.135V238.973ZM157.892 238.973H164.649V245.73H157.892V238.973ZM164.649 238.973H171.405V245.73H164.649V238.973ZM178.162 238.973H184.919V245.73H178.162V238.973ZM191.676 238.973H198.432V245.73H191.676V238.973ZM218.703 238.973H225.459V245.73H218.703V238.973ZM225.459 238.973H232.216V245.73H225.459V238.973ZM232.216 238.973H238.973V245.73H232.216V238.973ZM245.73 238.973H252.486V245.73H245.73V238.973ZM252.486 238.973H259.243V245.73H252.486V238.973ZM16 245.73H22.7568V252.486H16V245.73ZM29.5135 245.73H36.2703V252.486H29.5135V245.73ZM36.2703 245.73H43.027V252.486H36.2703V245.73ZM43.027 245.73H49.7838V252.486H43.027V245.73ZM56.5405 245.73H63.2973V252.486H56.5405V245.73ZM70.0541 245.73H76.8108V252.486H70.0541V245.73ZM90.3243 245.73H97.0811V252.486H90.3243V245.73ZM103.838 245.73H110.595V252.486H103.838V245.73ZM110.595 245.73H117.351V252.486H110.595V245.73ZM117.351 245.73H124.108V252.486H117.351V245.73ZM137.622 245.73H144.378V252.486H137.622V245.73ZM144.378 245.73H151.135V252.486H144.378V245.73ZM164.649 245.73H171.405V252.486H164.649V245.73ZM191.676 245.73H198.432V252.486H191.676V245.73ZM198.432 245.73H205.189V252.486H198.432V245.73ZM205.189 245.73H211.946V252.486H205.189V245.73ZM211.946 245.73H218.703V252.486H211.946V245.73ZM225.459 245.73H232.216V252.486H225.459V245.73ZM238.973 245.73H245.73V252.486H238.973V245.73ZM259.243 245.73H266V252.486H259.243V245.73ZM16 252.486H22.7568V259.243H16V252.486ZM56.5405 252.486H63.2973V259.243H56.5405V252.486ZM70.0541 252.486H76.8108V259.243H70.0541V252.486ZM76.8108 252.486H83.5676V259.243H76.8108V252.486ZM97.0811 252.486H103.838V259.243H97.0811V252.486ZM117.351 252.486H124.108V259.243H117.351V252.486ZM144.378 252.486H151.135V259.243H144.378V252.486ZM151.135 252.486H157.892V259.243H151.135V252.486ZM157.892 252.486H164.649V259.243H157.892V252.486ZM178.162 252.486H184.919V259.243H178.162V252.486ZM198.432 252.486H205.189V259.243H198.432V252.486ZM205.189 252.486H211.946V259.243H205.189V252.486ZM218.703 252.486H225.459V259.243H218.703V252.486ZM225.459 252.486H232.216V259.243H225.459V252.486ZM259.243 252.486H266V259.243H259.243V252.486ZM16 259.243H22.7568V266H16V259.243ZM22.7568 259.243H29.5135V266H22.7568V259.243ZM29.5135 259.243H36.2703V266H29.5135V259.243ZM36.2703 259.243H43.027V266H36.2703V259.243ZM43.027 259.243H49.7838V266H43.027V259.243ZM49.7838 259.243H56.5405V266H49.7838V259.243ZM56.5405 259.243H63.2973V266H56.5405V259.243ZM76.8108 259.243H83.5676V266H76.8108V259.243ZM83.5676 259.243H90.3243V266H83.5676V259.243ZM103.838 259.243H110.595V266H103.838V259.243ZM117.351 259.243H124.108V266H117.351V259.243ZM130.865 259.243H137.622V266H130.865V259.243ZM137.622 259.243H144.378V266H137.622V259.243ZM144.378 259.243H151.135V266H144.378V259.243ZM151.135 259.243H157.892V266H151.135V259.243ZM184.919 259.243H191.676V266H184.919V259.243ZM211.946 259.243H218.703V266H211.946V259.243ZM238.973 259.243H245.73V266H238.973V259.243ZM245.73 259.243H252.486V266H245.73V259.243ZM252.486 259.243H259.243V266H252.486V259.243ZM259.243 259.243H266V266H259.243V259.243Z" fill="black"/>
</svg>
