<svg width="400" height="366" viewBox="0 0 400 366" fill="none" xmlns="http://www.w3.org/2000/svg">
<path d="M117.645 283.445C117.645 283.445 149.467 289.29 150.432 329.225C120.538 326.303 117.645 283.445 117.645 283.445Z" fill="#212121"/>
<path d="M87.8663 340.999C87.8663 340.999 109.57 311.693 149.691 330.674C131.851 359.487 87.8663 340.999 87.8663 340.999Z" fill="#212121"/>
<path d="M92.5369 253.25C92.5369 253.25 120.237 270.116 107.114 307.8C80.1905 294.356 92.5369 253.25 92.5369 253.25Z" fill="#212121"/>
<path d="M43.8863 301.168C43.8863 301.168 72.3215 278.487 106.26 307.251C81.6843 330.461 43.8863 301.168 43.8863 301.168Z" fill="#212121"/>
<path d="M71.6248 218.114C71.6248 218.114 94.2799 241.43 72.2594 274.612C49.5107 254.806 71.6248 218.114 71.6248 218.114Z" fill="#212121"/>
<path d="M13.5006 254.292C13.5006 254.292 47.2294 240.923 71.441 278.399C41.2541 293.405 13.5006 254.292 13.5006 254.292Z" fill="#212121"/>
<path d="M69.0142 179.221C69.0142 179.221 80.9494 209.586 47.9163 231.551C34.5475 204.386 69.0142 179.221 69.0142 179.221Z" fill="#212121"/>
<path d="M2.9115 186.189C2.9115 186.189 39.1098 187.781 46.2006 231.954C12.5832 233.309 2.9115 186.189 2.9115 186.189Z" fill="#212121"/>
<path d="M70.5791 137.434C70.5791 137.434 76.4174 169.567 39.7753 184.597C31.9127 155.319 70.5791 137.434 70.5791 137.434Z" fill="#212121"/>
<path d="M5.12207 126.623C5.12207 126.623 39.9344 136.769 36.541 181.388C3.55112 174.718 5.12207 126.623 5.12207 126.623Z" fill="#212121"/>
<path d="M85.1954 99.7515C85.1954 99.7515 82.0442 132.266 42.7208 136.519C43.1473 106.186 85.1954 99.7515 85.1954 99.7515Z" fill="#212121"/>
<path d="M19.2445 81.394C19.2445 81.394 51.4095 98.2419 39.4155 141.321C8.36221 128.244 19.2445 81.394 19.2445 81.394Z" fill="#212121"/>
<path d="M108.836 70.1919C108.836 70.1919 96.3531 100.331 57.5316 92.7084C66.7748 63.8448 108.836 70.1919 108.836 70.1919Z" fill="#212121"/>
<path d="M38.1394 38.2549C38.1394 38.2549 68.9713 57.4783 53.8306 99.5343C23.8291 84.1546 38.1394 38.2549 38.1394 38.2549Z" fill="#212121"/>
<path d="M131.36 49.5005C131.36 49.5005 113.401 76.672 76.7393 61.6914C91.2765 35.1459 131.36 49.5005 131.36 49.5005Z" fill="#212121"/>
<path d="M144.064 3.28174C144.064 3.28174 139.061 35.5587 99.5606 37.5132C101.718 7.25551 144.064 3.28174 144.064 3.28174Z" fill="#212121"/>
<path d="M80.5415 0C80.5415 0 102.481 29.126 73.3966 62.8831C50.8655 37.6456 80.5415 0 80.5415 0Z" fill="#212121"/>
<path d="M184.217 337.276C-0.96398 305.846 10.6077 104.221 101.287 35.3254" stroke="#212121" stroke-width="4" stroke-linecap="round"/>
<path d="M282.355 283.445C282.355 283.445 250.533 289.29 249.569 329.225C279.462 326.303 282.355 283.445 282.355 283.445Z" fill="#212121"/>
<path d="M312.134 340.999C312.134 340.999 290.43 311.693 250.31 330.674C268.149 359.487 312.134 340.999 312.134 340.999Z" fill="#212121"/>
<path d="M307.464 253.25C307.464 253.25 279.764 270.116 292.887 307.8C319.81 294.356 307.464 253.25 307.464 253.25Z" fill="#212121"/>
<path d="M356.114 301.168C356.114 301.168 327.679 278.487 293.741 307.251C318.316 330.461 356.114 301.168 356.114 301.168Z" fill="#212121"/>
<path d="M328.376 218.114C328.376 218.114 305.721 241.43 327.741 274.612C350.49 254.806 328.376 218.114 328.376 218.114Z" fill="#212121"/>
<path d="M386.5 254.292C386.5 254.292 352.771 240.923 328.56 278.399C358.746 293.405 386.5 254.292 386.5 254.292Z" fill="#212121"/>
<path d="M330.986 179.221C330.986 179.221 319.051 209.586 352.084 231.551C365.453 204.386 330.986 179.221 330.986 179.221Z" fill="#212121"/>
<path d="M397.089 186.189C397.089 186.189 360.891 187.781 353.8 231.954C387.417 233.309 397.089 186.189 397.089 186.189Z" fill="#212121"/>
<path d="M329.421 137.434C329.421 137.434 323.583 169.567 360.225 184.597C368.088 155.319 329.421 137.434 329.421 137.434Z" fill="#212121"/>
<path d="M394.878 126.623C394.878 126.623 360.065 136.769 363.459 181.388C396.449 174.718 394.878 126.623 394.878 126.623Z" fill="#212121"/>
<path d="M314.805 99.7515C314.805 99.7515 317.956 132.266 357.28 136.519C356.853 106.186 314.805 99.7515 314.805 99.7515Z" fill="#212121"/>
<path d="M380.756 81.394C380.756 81.394 348.591 98.2419 360.585 141.321C391.638 128.244 380.756 81.394 380.756 81.394Z" fill="#212121"/>
<path d="M291.165 70.1919C291.165 70.1919 303.647 100.331 342.469 92.7084C333.226 63.8448 291.165 70.1919 291.165 70.1919Z" fill="#212121"/>
<path d="M361.861 38.2549C361.861 38.2549 331.029 57.4783 346.17 99.5343C376.171 84.1546 361.861 38.2549 361.861 38.2549Z" fill="#212121"/>
<path d="M268.641 49.5005C268.641 49.5005 286.599 76.672 323.261 61.6914C308.724 35.1459 268.641 49.5005 268.641 49.5005Z" fill="#212121"/>
<path d="M255.936 3.28174C255.936 3.28174 260.938 35.5587 300.439 37.5132C298.281 7.25551 255.936 3.28174 255.936 3.28174Z" fill="#212121"/>
<path d="M319.459 0C319.459 0 297.52 29.126 326.604 62.8831C349.135 37.6456 319.459 0 319.459 0Z" fill="#212121"/>
<path d="M215.783 337.276C400.964 305.846 389.393 104.221 298.713 35.3254" stroke="#212121" stroke-width="4" stroke-linecap="round"/>
</svg>
