<svg width="691" height="691" viewBox="0 0 691 691" fill="none" xmlns="http://www.w3.org/2000/svg">
<rect width="691" height="691" fill="#EDEDED"/>
<path d="M275.627 491.086C264.299 491.086 255.705 488.01 249.846 481.857C243.986 475.803 241.057 466.623 241.057 454.318V348.41C241.057 336.203 243.986 327.072 249.846 321.018C255.705 314.963 264.299 311.936 275.627 311.936H415.227C426.652 311.936 435.246 314.963 441.008 321.018C446.867 327.072 449.797 336.203 449.797 348.41V454.318C449.797 466.623 446.867 475.803 441.008 481.857C435.246 488.01 426.652 491.086 415.227 491.086H275.627ZM268.742 324.973V277.951C268.742 260.178 272.258 245.188 279.289 232.98C286.418 220.773 295.793 211.545 307.414 205.295C319.035 198.947 331.682 195.773 345.354 195.773C359.123 195.773 371.818 198.947 383.439 205.295C395.158 211.545 404.533 220.773 411.564 232.98C418.693 245.188 422.258 260.178 422.258 277.951V324.973H391.789V275.607C391.789 264.865 389.641 255.734 385.344 248.215C381.145 240.695 375.529 234.982 368.498 231.076C361.564 227.17 353.85 225.217 345.354 225.217C336.955 225.217 329.24 227.17 322.209 231.076C315.275 234.982 309.709 240.695 305.51 248.215C301.408 255.734 299.357 264.865 299.357 275.607V324.973H268.742Z" fill="#212121"/>
</svg>
